<svg width="34" height="34" viewBox="0 0 34 34" fill="none" xmlns="http://www.w3.org/2000/svg">
<g clip-path="url(#clip0_2064_772)">
<path d="M33.9201 13.8819L33.1424 2.76352C33.0882 1.96777 31.9778 1.83037 31.7318 2.58986C30.5165 6.36951 29.0843 10.9811 27.3228 12.728C27.0624 12.9884 26.6537 12.9993 26.3644 12.7751C20.769 8.45287 13.1445 8.5216 7.636 12.7751C7.34667 12.9993 6.93794 12.9884 6.67756 12.728C4.91613 10.9812 3.48023 6.36964 2.26493 2.58986C2.02262 1.83031 0.912236 1.96777 0.85433 2.76352L0.0802989 13.8819C-0.201861 16.5874 0.257537 19.329 1.4909 21.7451C2.72426 24.154 4.15651 26.3747 5.82397 28.3858C7.67943 30.6138 10.4211 31.9122 13.3182 31.9122H20.6786C23.5793 31.9122 26.321 30.6137 28.1728 28.3858C29.8438 26.3747 31.2761 24.154 32.5059 21.7451C33.7392 19.329 34.2022 16.5874 33.9201 13.8819ZM21.1054 17.9618C20.5773 17.9618 19.3838 17.3795 18.1975 16.8405C17.4343 16.4933 16.5626 16.4933 15.803 16.8405C14.6131 17.3794 13.4231 17.9618 12.8951 17.9618C11.8064 17.9618 10.9203 17.0793 10.9203 15.987C10.9203 14.2039 13.2966 13.3358 15.398 13.5456C16.465 13.6541 17.5356 13.6541 18.6025 13.5456C20.7003 13.3357 23.0767 14.2038 23.0767 15.987C23.0766 17.0792 22.194 17.9618 21.1054 17.9618Z" fill="white"/>
</g>
<defs>
<clipPath id="clip0_2064_772">
<rect width="34" height="34" fill="white"/>
</clipPath>
</defs>
</svg>
