<svg width="38" height="38" viewBox="0 0 38 38" fill="none" xmlns="http://www.w3.org/2000/svg">
<g clip-path="url(#clip0_2064_230)">
<path d="M8.15177 15.1053C11.607 18.977 24.9579 19.105 29.8876 15.1938C27.9031 10.8976 28.1235 5.88278 29.7854 1.54484C30.0893 0.751518 29.4995 0.0121505 28.7545 0.0121505C7.74758 0.0121505 9.01538 -0.0720878 8.61831 0.203041C8.17575 0.509713 8.02538 1.05611 8.20492 1.52287C9.81487 5.70926 10.1391 10.7298 8.15177 15.1053ZM18.9862 11.2372C19.601 11.2372 20.0994 11.7351 20.0994 12.3492C20.0994 12.9634 19.601 13.4613 18.9862 13.4613C18.3713 13.4613 17.8729 12.9634 17.8729 12.3492C17.8729 11.7351 18.3713 11.2372 18.9862 11.2372Z" fill="#05372F"/>
<path d="M32.5253 21.0286C32.1402 19.7288 31.6151 18.4507 30.9522 17.2013C25.235 21.3525 11.88 21.3846 7.06623 17.1677C6.39455 18.4284 5.86314 19.7183 5.47461 21.0303C10.6248 21.0027 15.497 24.1516 18.9872 27.9437C22.4563 24.1769 27.3356 20.9956 32.5253 21.0286Z" fill="#05372F"/>
<path d="M17.8732 30.0235C14.7651 26.3697 9.86257 22.9532 4.95486 23.2415C4.19753 27.6879 5.19592 33.1931 7.96101 37.4891C8.16586 37.8073 8.51862 37.9998 8.89743 37.9998L17.8732 38V30.0235Z" fill="#05372F"/>
<path d="M33.0457 23.2482C26.5917 22.8712 21.2596 28.6615 20.0996 30.0234V37.9998L29.1017 38.0001C29.4806 38.0001 29.8333 37.8076 30.0382 37.4894C32.7811 33.2277 33.8078 27.7331 33.0457 23.2482Z" fill="#05372F"/>
</g>
<defs>
<clipPath id="clip0_2064_230">
<rect width="38" height="38" fill="white"/>
</clipPath>
</defs>
</svg>
