<svg width="21" height="21" viewBox="0 0 21 21" fill="none" xmlns="http://www.w3.org/2000/svg">
<rect x="6" y="6" width="10" height="10" fill="white"/>
<path fill-rule="evenodd" clip-rule="evenodd" d="M10.504 1.31775C15.5773 1.31775 19.6916 5.43207 19.6916 10.5053C19.6916 15.5786 15.5773 19.6929 10.504 19.6929C5.43073 19.6929 1.31641 15.5786 1.31641 10.5053C1.31641 5.43207 5.43073 1.31775 10.504 1.31775ZM8.59609 13.4895L6.34674 11.2383C5.96353 10.8549 5.96345 10.2296 6.34674 9.84626C6.73011 9.46297 7.35817 9.46537 7.73875 9.84626L9.32453 11.4333L13.2694 7.4884C13.6528 7.10503 14.2781 7.10503 14.6614 7.4884C15.0448 7.87169 15.0442 8.49758 14.6614 8.88041L10.0194 13.5224C9.63659 13.9052 9.01069 13.9058 8.6274 13.5224C8.61663 13.5116 8.60624 13.5007 8.59609 13.4895Z" fill="url(#paint0_linear_2064_853)"/>
<defs>
<linearGradient id="paint0_linear_2064_853" x1="10.504" y1="1.31775" x2="10.504" y2="19.6929" gradientUnits="userSpaceOnUse">
<stop stop-color="#35C091"/>
<stop offset="1" stop-color="#0B796C"/>
</linearGradient>
</defs>
</svg>
