<svg width="38" height="38" viewBox="0 0 38 38" fill="none" xmlns="http://www.w3.org/2000/svg">
<g clip-path="url(#clip0_2064_216)">
<path d="M8.86412 11.8454C12.13 11.8454 14.7868 9.18834 14.7868 5.92271C14.7868 2.6568 12.1297 0 8.86412 0C5.5985 0 2.94141 2.6568 2.94141 5.92271C2.94141 9.18834 5.59821 11.8454 8.86412 11.8454Z" fill="#05372F"/>
<path d="M29.2367 15.502C30.8687 15.502 32.1956 14.1751 32.1956 12.5443V10.5532C30.1332 10.4769 28.0794 10.1887 26.0752 9.69385V12.3402C26.0749 14.087 27.4883 15.502 29.2367 15.502Z" fill="#05372F"/>
<path d="M18.9991 27.6389C15.0982 27.6389 11.9248 30.8126 11.9248 34.7135V36.8867C11.9248 37.5016 12.4232 38 13.0381 38H24.9624C25.5773 38 26.0757 37.5016 26.0757 36.8867V34.7146C26.0757 30.8132 22.9016 27.6389 18.9991 27.6389Z" fill="#05372F"/>
<path d="M9.69801 34.7136C9.69801 31.076 11.7973 27.92 14.8478 26.3921C12.8004 25.0393 11.4471 22.718 11.4471 20.0861C11.4471 18.2347 12.1171 16.5372 13.2266 15.2222C11.9379 14.4904 10.4492 14.0718 8.86421 14.0718C3.9765 14.0721 0 18.0483 0 22.936V36.8868C0 37.5017 0.498367 38.0001 1.11328 38.0001H9.88936C9.76585 37.6516 9.69801 37.277 9.69801 36.8868V34.7136Z" fill="#05372F"/>
<path d="M19.0002 25.4125C21.9373 25.4125 24.3265 23.023 24.3265 20.0861C24.3265 17.1493 21.9373 14.7598 19.0002 14.7598C16.063 14.7598 13.6738 17.1493 13.6738 20.0861C13.6738 23.0233 16.063 25.4125 19.0002 25.4125Z" fill="#05372F"/>
<path d="M29.1355 17.7288C28.1487 17.7288 27.1989 17.8911 26.3115 18.19C26.4689 18.7962 26.5527 19.4314 26.5527 20.0861C26.5527 22.7182 25.1991 25.0399 23.1514 26.3923C26.2022 27.9208 28.3017 31.0768 28.3017 34.7147V36.8868C28.3017 37.277 28.2339 37.6516 28.1104 38H36.8865C37.5014 38 37.9998 37.5017 37.9998 36.8868V26.593C37.9998 21.7053 34.0233 17.7288 29.1355 17.7288Z" fill="#05372F"/>
<path d="M29.1363 0C24.2483 0 20.2715 3.9765 20.2715 8.86479V12.6407C21.9281 12.9225 23.4023 13.7455 24.5057 14.9209C24.0772 14.1384 23.8488 13.257 23.8488 12.3403V8.26785C23.8488 7.92517 24.0071 7.60162 24.2773 7.39056C24.5472 7.17979 24.8997 7.105 25.2323 7.1882L26.532 7.5132C28.7466 8.06694 31.0265 8.34729 33.3096 8.34729C33.924 8.34729 34.4229 8.84624 34.4229 9.46057V12.5444C34.4229 13.9554 33.855 15.2372 32.9377 16.173C33.9701 16.5517 34.9306 17.0784 35.7945 17.7287H36.8869C37.5015 17.7287 38.0002 17.2298 38.0002 16.6154V8.86479C38.0002 3.9765 34.0237 0 29.1363 0Z" fill="#05372F"/>
</g>
<defs>
<clipPath id="clip0_2064_216">
<rect width="38" height="38" fill="white"/>
</clipPath>
</defs>
</svg>
