<svg width="22" height="22" viewBox="0 0 22 22" fill="none" xmlns="http://www.w3.org/2000/svg">
<g clip-path="url(#clip0_2110_124)">
<path d="M5.13206 6.85788C7.02286 6.85788 8.561 5.31956 8.561 3.42894C8.561 1.53815 7.02269 0 5.13206 0C3.24144 0 1.70312 1.53815 1.70312 3.42894C1.70312 5.31956 3.24127 6.85788 5.13206 6.85788Z" fill="url(#paint0_linear_2110_124)"/>
<path d="M16.927 8.97495C17.8719 8.97495 18.6401 8.20671 18.6401 7.26257V6.1098C17.446 6.06566 16.257 5.89882 15.0967 5.6123V7.14441C15.0965 8.15569 15.9148 8.97495 16.927 8.97495Z" fill="url(#paint1_linear_2110_124)"/>
<path d="M10.9989 16.0015C8.74057 16.0015 6.90332 17.8389 6.90332 20.0973V21.3554C6.90332 21.7114 7.19185 22 7.54785 22H14.4514C14.8074 22 15.0959 21.7114 15.0959 21.3554V20.0979C15.0959 17.8392 13.2583 16.0015 10.9989 16.0015Z" fill="url(#paint2_linear_2110_124)"/>
<path d="M5.61464 20.0972C5.61464 17.9913 6.83002 16.1641 8.5961 15.2795C7.41077 14.4964 6.62726 13.1524 6.62726 11.6287C6.62726 10.5568 7.01515 9.5741 7.6575 8.81274C6.91142 8.3891 6.04953 8.14673 5.13191 8.14673C2.30219 8.1469 0 10.4489 0 13.2786V21.3554C0 21.7114 0.288528 22 0.644531 22H5.72542C5.65392 21.7982 5.61464 21.5813 5.61464 21.3554V20.0972Z" fill="url(#paint3_linear_2110_124)"/>
<path d="M10.9997 14.7125C12.7001 14.7125 14.0834 13.3291 14.0834 11.6288C14.0834 9.92856 12.7001 8.54517 10.9997 8.54517C9.29924 8.54517 7.91602 9.92856 7.91602 11.6288C7.91602 13.3293 9.29924 14.7125 10.9997 14.7125Z" fill="url(#paint4_linear_2110_124)"/>
<path d="M16.8678 10.2639C16.2965 10.2639 15.7466 10.3579 15.2328 10.531C15.324 10.8819 15.3725 11.2497 15.3725 11.6287C15.3725 13.1526 14.5888 14.4967 13.4033 15.2797C15.1696 16.1646 16.3851 17.9917 16.3851 20.0979V21.3554C16.3851 21.5813 16.3458 21.7982 16.2743 21.9999H21.3552C21.7112 21.9999 21.9998 21.7114 21.9998 21.3554V15.3958C21.9998 12.5661 19.6976 10.2639 16.8678 10.2639Z" fill="url(#paint5_linear_2110_124)"/>
<path d="M16.8686 0C14.0387 0 11.7363 2.30219 11.7363 5.13225V7.31828C12.6954 7.48143 13.5489 7.95795 14.1877 8.6384C13.9397 8.18538 13.8074 7.67513 13.8074 7.14439V4.78665C13.8074 4.58826 13.899 4.40094 14.0555 4.27875C14.2117 4.15672 14.4158 4.11342 14.6084 4.16159L15.3608 4.34975C16.643 4.67033 17.9629 4.83264 19.2847 4.83264C19.6404 4.83264 19.9293 5.12151 19.9293 5.47717V7.26256C19.9293 8.07947 19.6004 8.82152 19.0694 9.36333C19.6671 9.58253 20.2232 9.88751 20.7233 10.264H21.3558C21.7116 10.264 22.0003 9.97513 22.0003 9.61946V5.13225C22.0003 2.30219 19.6981 0 16.8686 0Z" fill="url(#paint6_linear_2110_124)"/>
</g>
<defs>
<linearGradient id="paint0_linear_2110_124" x1="5.13206" y1="0" x2="5.13206" y2="6.85788" gradientUnits="userSpaceOnUse">
<stop stop-color="#FFBA68"/>
<stop offset="1" stop-color="#FD7B5E"/>
</linearGradient>
<linearGradient id="paint1_linear_2110_124" x1="16.8684" y1="5.6123" x2="16.8684" y2="8.97495" gradientUnits="userSpaceOnUse">
<stop stop-color="#FFBA68"/>
<stop offset="1" stop-color="#FD7B5E"/>
</linearGradient>
<linearGradient id="paint2_linear_2110_124" x1="10.9996" y1="16.0015" x2="10.9996" y2="22" gradientUnits="userSpaceOnUse">
<stop stop-color="#FFBA68"/>
<stop offset="1" stop-color="#FD7B5E"/>
</linearGradient>
<linearGradient id="paint3_linear_2110_124" x1="4.29805" y1="8.14673" x2="4.29805" y2="22" gradientUnits="userSpaceOnUse">
<stop stop-color="#FFBA68"/>
<stop offset="1" stop-color="#FD7B5E"/>
</linearGradient>
<linearGradient id="paint4_linear_2110_124" x1="10.9997" y1="8.54517" x2="10.9997" y2="14.7125" gradientUnits="userSpaceOnUse">
<stop stop-color="#FFBA68"/>
<stop offset="1" stop-color="#FD7B5E"/>
</linearGradient>
<linearGradient id="paint5_linear_2110_124" x1="17.7015" y1="10.2639" x2="17.7015" y2="21.9999" gradientUnits="userSpaceOnUse">
<stop stop-color="#FFBA68"/>
<stop offset="1" stop-color="#FD7B5E"/>
</linearGradient>
<linearGradient id="paint6_linear_2110_124" x1="16.8683" y1="0" x2="16.8683" y2="10.264" gradientUnits="userSpaceOnUse">
<stop stop-color="#FFBA68"/>
<stop offset="1" stop-color="#FD7B5E"/>
</linearGradient>
<clipPath id="clip0_2110_124">
<rect width="22" height="22" fill="white"/>
</clipPath>
</defs>
</svg>
