<svg width="38" height="38" viewBox="0 0 38 38" fill="none" xmlns="http://www.w3.org/2000/svg">
<path d="M15.1499 37.0499L13.9457 32.1398C13.7702 31.4243 13.1928 30.8775 12.4689 30.7411L6.60646 29.637C5.89432 29.4631 5.40807 28.8053 5.45064 28.0734L5.75568 22.8297L4.01976 21.6705C3.69363 21.4527 3.60685 21.0112 3.82628 20.6861L6.62613 16.5389C6.82529 16.2439 6.9204 15.8883 6.88027 15.5346C6.82608 15.057 6.79736 14.5711 6.79736 14.0786C6.79736 6.82802 12.9525 0.949951 20.5462 0.949951C28.1399 0.949951 34.295 6.82802 34.295 14.0786C34.295 16.41 33.6602 18.5973 32.5459 20.494C31.6142 22.0798 30.8038 23.7339 30.2312 25.4818L29.5794 27.4711C29.2937 28.3432 29.2251 29.2718 29.3797 30.1765L30.277 35.4294L15.1499 37.0499Z" fill="white" fill-opacity="0.3"/>
</svg>
