<svg width="32" height="38" viewBox="0 0 32 38" fill="none" xmlns="http://www.w3.org/2000/svg">
<path d="M12.1499 37.05L10.9457 32.1398C10.7702 31.4243 10.1928 30.8775 9.46886 30.7411L3.60646 29.637C2.89432 29.4631 2.40807 28.8053 2.45064 28.0734L2.75568 22.8297L1.01976 21.6705C0.693634 21.4527 0.606851 21.0112 0.826282 20.6861L3.62613 16.5389C3.82529 16.2439 3.9204 15.8883 3.88027 15.5346C3.82608 15.057 3.79736 14.5711 3.79736 14.0786C3.79736 6.82802 9.95251 0.949951 17.5462 0.949951C25.1399 0.949951 31.295 6.82802 31.295 14.0786C31.295 16.41 30.6602 18.5973 29.5459 20.494C28.6142 22.0798 27.8038 23.7339 27.2312 25.4818L26.5794 27.4711C26.2937 28.3432 26.2251 29.2718 26.3797 30.1765L27.277 35.4294L12.1499 37.05Z" fill="#05372F"/>
</svg>
