<svg width="20" height="24" viewBox="0 0 20 24" fill="none" xmlns="http://www.w3.org/2000/svg">
<path d="M7.56814 23.4001L6.80761 20.299C6.69679 19.8471 6.33209 19.5017 5.87486 19.4156L2.17229 18.7182C1.72252 18.6084 1.41542 18.1929 1.4423 17.7307L1.63496 14.4189L0.538593 13.6867C0.332616 13.5492 0.277806 13.2703 0.416394 13.0651L2.18472 10.4457C2.3105 10.2594 2.37057 10.0348 2.34523 9.81148C2.311 9.5098 2.29287 9.20292 2.29287 8.89189C2.29287 4.31256 6.18033 0.600098 10.9763 0.600098C15.7723 0.600098 19.6598 4.31256 19.6598 8.89189C19.6598 10.3644 19.2589 11.7458 18.5551 12.9437C17.9666 13.9453 17.4548 14.9899 17.0932 16.0939L16.6815 17.3503C16.5011 17.9011 16.4578 18.4876 16.5554 19.0589L17.1221 22.3766L7.56814 23.4001Z" fill="url(#paint0_linear_2064_587)"/>
<defs>
<linearGradient id="paint0_linear_2064_587" x1="9.99983" y1="0.600098" x2="9.99983" y2="23.4001" gradientUnits="userSpaceOnUse">
<stop stop-color="#FFBA68"/>
<stop offset="1" stop-color="#FD7B5E"/>
</linearGradient>
</defs>
</svg>
