<svg width="24" height="24" viewBox="0 0 24 24" fill="none" xmlns="http://www.w3.org/2000/svg">
<path d="M19.3046 8.76594L3.17104 18.7877C2.22121 19.3748 1 18.6759 1 17.5297V6.34785C1 1.46975 6.11551 -1.57732 10.2269 0.854747L16.4551 4.54477L19.291 6.22206C20.2272 6.79513 20.2408 8.19287 19.3046 8.76594Z" fill="#292D32"/>
<path d="M20.3002 16.8014L14.8128 20.0327L9.33897 23.2501C7.37435 24.3962 5.1523 24.1615 3.53996 23.0015C2.75411 22.4492 2.84896 21.2202 3.67545 20.7231L20.8964 10.2009C21.7093 9.70376 22.7797 10.1733 22.9287 11.1261C23.2674 13.2664 22.4003 15.5725 20.3002 16.8014Z" fill="#292D32"/>
</svg>
