<svg width="38" height="38" viewBox="0 0 38 38" fill="none" xmlns="http://www.w3.org/2000/svg">
<path fill-rule="evenodd" clip-rule="evenodd" d="M17.8125 4.76544V4.73456C17.8208 4.08619 18.3493 3.5625 19 3.5625C19.6555 3.5625 20.1875 4.0945 20.1875 4.75C20.1875 5.4055 19.6555 5.9375 19 5.9375C18.3445 5.9375 17.8137 6.4683 17.8125 7.1238L17.8113 8.70081L12.654 10.7587L9.86102 11.6897C6.80202 12.7098 4.36647 15.0575 3.23478 18.0761C2.28478 20.6079 1.26353 23.3332 1.26353 23.3332C1.04978 23.902 1.30036 24.5397 1.84423 24.8116L8.31014 28.0475L8.30898 35.625C8.30898 35.9397 8.43367 36.2413 8.65692 36.4646C8.87898 36.6878 9.1818 36.8125 9.49648 36.8125H28.5C29.1555 36.8125 29.6875 36.2805 29.6875 35.625V28.0428L36.1558 24.8128C36.6997 24.5409 36.9503 23.9032 36.7377 23.3332C36.7377 23.3332 35.7177 20.6114 34.77 18.0797C33.6372 15.0539 31.1968 12.7027 28.1307 11.6838L25.3508 10.7611L20.1863 8.6937V8.10945C21.5698 7.6202 22.5625 6.30088 22.5625 4.75C22.5625 2.7835 20.9665 1.1875 19 1.1875C17.0335 1.1875 15.4375 2.7835 15.4375 4.75C15.4375 5.4055 15.9695 5.9375 16.625 5.9375C17.2758 5.9375 17.8042 5.41381 17.8125 4.76544ZM15.2012 12.3001C17.3969 14.1324 20.6055 14.1312 22.8 12.2977L19.0072 10.7801L15.2012 12.3001Z" fill="white" fill-opacity="0.3"/>
</svg>
