<svg width="24" height="24" viewBox="0 0 24 24" fill="none" xmlns="http://www.w3.org/2000/svg">
<path fill-rule="evenodd" clip-rule="evenodd" d="M11.25 3.00975V2.99025C11.2553 2.58075 11.589 2.25 12 2.25C12.414 2.25 12.75 2.586 12.75 3C12.75 3.414 12.414 3.75 12 3.75C11.586 3.75 11.2508 4.08524 11.25 4.49924L11.2493 5.49525L7.99203 6.795L6.22801 7.383C4.29601 8.02725 2.75777 9.50999 2.04302 11.4165C1.44302 13.0155 0.798018 14.7367 0.798018 14.7367C0.663018 15.096 0.821279 15.4988 1.16478 15.6705L5.24851 17.7142L5.24778 22.5C5.24778 22.6987 5.32653 22.8892 5.46753 23.0303C5.60778 23.1713 5.79903 23.25 5.99778 23.25H18C18.414 23.25 18.75 22.914 18.75 22.5V17.7112L22.8353 15.6712C23.1788 15.4995 23.337 15.0967 23.2028 14.7367C23.2028 14.7367 22.5585 13.0178 21.96 11.4188C21.2445 9.50775 19.7033 8.02274 17.7668 7.37924L16.011 6.79651L12.7493 5.49076V5.12176C13.623 4.81276 14.25 3.9795 14.25 3C14.25 1.758 13.242 0.75 12 0.75C10.758 0.75 9.75002 1.758 9.75002 3C9.75002 3.414 10.086 3.75 10.5 3.75C10.911 3.75 11.2448 3.41925 11.25 3.00975ZM9.60077 7.7685C10.9875 8.92575 13.014 8.92499 14.4 7.76699L12.0045 6.8085L9.60077 7.7685Z" fill="url(#paint0_linear_2064_2245)"/>
<defs>
<linearGradient id="paint0_linear_2064_2245" x1="12.0002" y1="0.75" x2="12.0002" y2="23.25" gradientUnits="userSpaceOnUse">
<stop stop-color="#FFBA68"/>
<stop offset="1" stop-color="#FD7B5E"/>
</linearGradient>
</defs>
</svg>
