<svg width="24" height="24" viewBox="0 0 24 24" fill="none" xmlns="http://www.w3.org/2000/svg">
<path d="M23.73 17.4234L19.23 13.6734C19.0065 13.4859 18.6945 13.4484 18.432 13.5699C18.168 13.6944 18 13.9584 18 14.2494V16.4994H16.7445C15.7035 16.4994 14.7525 15.9714 14.2005 15.0894L9.3435 7.31939C8.241 5.55389 6.339 4.49939 4.2555 4.49939H0V7.49939H4.2555C5.2965 7.49939 6.2475 8.02739 6.7995 8.90939L11.6565 16.6794C12.7605 18.4449 14.6625 19.4994 16.7445 19.4994H18V21.7494C18 22.0404 18.168 22.3044 18.432 22.4289C18.5325 22.4754 18.642 22.4994 18.75 22.4994C18.9225 22.4994 19.0935 22.4409 19.23 22.3254L23.73 18.5754C23.9025 18.4329 24 18.2214 24 17.9994C24 17.7774 23.9025 17.5659 23.73 17.4234Z" fill="white"/>
<path d="M23.7298 5.4235L19.2298 1.6735C19.0063 1.4875 18.6943 1.4485 18.4318 1.5715C18.1678 1.693 17.9998 1.9585 17.9998 2.2495V4.4995H16.7443C14.6608 4.4995 12.7588 5.554 11.6563 7.3195L11.3848 7.7545L13.1533 10.585L14.2003 8.9095C14.7523 8.0275 15.7033 7.4995 16.7443 7.4995H17.9998V9.7495C17.9998 10.0405 18.1678 10.306 18.4318 10.429C18.5323 10.4755 18.6418 10.4995 18.7498 10.4995C18.9223 10.4995 19.0933 10.4395 19.2298 10.3255L23.7298 6.5755C23.9023 6.433 23.9998 6.2215 23.9998 5.9995C23.9998 5.7775 23.9023 5.566 23.7298 5.4235Z" fill="white"/>
<path d="M7.8465 13.4139L6.801 15.0894C6.249 15.9714 5.2965 16.4994 4.2555 16.4994H0V19.4994H4.2555C6.3375 19.4994 8.2395 18.4449 9.3435 16.6794L9.615 16.2444L7.8465 13.4139Z" fill="white"/>
</svg>
