<svg width="152" height="8" viewBox="0 0 152 8" fill="none" xmlns="http://www.w3.org/2000/svg">
<rect width="2" height="8" rx="1" fill="white" fill-opacity="0.15"/>
<rect x="4" width="2" height="8" rx="1" fill="white" fill-opacity="0.15"/>
<rect x="8" width="2" height="8" rx="1" fill="white" fill-opacity="0.15"/>
<rect x="12" width="2" height="8" rx="1" fill="white" fill-opacity="0.15"/>
<rect x="16" width="2" height="8" rx="1" fill="white" fill-opacity="0.15"/>
<rect x="20" width="2" height="8" rx="1" fill="white" fill-opacity="0.15"/>
<rect x="24" width="2" height="8" rx="1" fill="white" fill-opacity="0.15"/>
<rect x="28" width="2" height="8" rx="1" fill="white" fill-opacity="0.15"/>
<rect x="32" width="2" height="8" rx="1" fill="white" fill-opacity="0.15"/>
<rect x="36" width="2" height="8" rx="1" fill="white" fill-opacity="0.15"/>
<rect x="40" width="2" height="8" rx="1" fill="white" fill-opacity="0.15"/>
<rect x="44" width="2" height="8" rx="1" fill="white" fill-opacity="0.15"/>
<rect x="48" width="2" height="8" rx="1" fill="white" fill-opacity="0.15"/>
<rect x="52" width="2" height="8" rx="1" fill="white" fill-opacity="0.15"/>
<rect x="56" width="2" height="8" rx="1" fill="white" fill-opacity="0.15"/>
<rect x="60" width="2" height="8" rx="1" fill="white" fill-opacity="0.15"/>
<rect x="64" width="2" height="8" rx="1" fill="white" fill-opacity="0.15"/>
<rect x="68" width="2" height="8" rx="1" fill="white" fill-opacity="0.15"/>
<rect x="72" width="2" height="8" rx="1" fill="white" fill-opacity="0.15"/>
<rect x="76" width="2" height="8" rx="1" fill="white" fill-opacity="0.15"/>
<rect x="80" width="2" height="8" rx="1" fill="white" fill-opacity="0.15"/>
<rect x="84" width="2" height="8" rx="1" fill="white" fill-opacity="0.15"/>
<rect x="88" width="2" height="8" rx="1" fill="white" fill-opacity="0.15"/>
<rect x="92" width="2" height="8" rx="1" fill="white" fill-opacity="0.15"/>
<rect x="96" width="2" height="8" rx="1" fill="white" fill-opacity="0.15"/>
<rect x="100" width="2" height="8" rx="1" fill="white" fill-opacity="0.15"/>
<rect x="104" width="2" height="8" rx="1" fill="white" fill-opacity="0.15"/>
<rect x="108" width="2" height="8" rx="1" fill="white" fill-opacity="0.15"/>
<rect x="112" width="2" height="8" rx="1" fill="white" fill-opacity="0.15"/>
<rect x="116" width="2" height="8" rx="1" fill="white" fill-opacity="0.15"/>
<rect x="120" width="2" height="8" rx="1" fill="white" fill-opacity="0.15"/>
<rect x="124" width="2" height="8" rx="1" fill="white" fill-opacity="0.15"/>
<rect x="128" width="2" height="8" rx="1" fill="white" fill-opacity="0.15"/>
<rect x="132" width="2" height="8" rx="1" fill="white" fill-opacity="0.15"/>
<rect x="136" width="2" height="8" rx="1" fill="white" fill-opacity="0.15"/>
<rect x="140" width="2" height="8" rx="1" fill="white" fill-opacity="0.15"/>
<rect x="144" width="2" height="8" rx="1" fill="white" fill-opacity="0.15"/>
<rect x="148" width="2" height="8" rx="1" fill="white" fill-opacity="0.15"/>
</svg>
