<svg width="34" height="34" viewBox="0 0 34 34" fill="none" xmlns="http://www.w3.org/2000/svg">
<g clip-path="url(#clip0_2064_1949)">
<path d="M33.0722 13.8624L31.2872 7.06581C30.7525 5.01491 29.3428 3.3189 27.4266 2.40488L22.5072 0.067118C22.3444 -0.00725695 22.16 -0.0213351 21.9866 0.0352431C21.6641 0.0883681 17.531 2.05745 12.0769 0.0599462C11.9319 -0.0144288 11.6907 -0.028507 11.4853 0.067118L6.56597 2.40462C4.65347 3.31837 3.24725 5.01465 2.71255 7.06554L0.927549 13.8624C0.846002 14.1705 0.984128 14.4964 1.26064 14.6555L6.83903 17.8677V29.9661C6.83903 31.2127 7.63591 32.3108 8.81874 32.6968C14.0428 34.4002 19.745 34.4677 25.1815 32.6968C26.3643 32.3105 27.1612 31.2127 27.1612 29.9661V17.8677L32.7396 14.6552C33.015 14.4961 33.1534 14.1702 33.0722 13.8624ZM16.9963 5.14959C14.91 5.14959 13.1535 3.69768 12.6791 1.74959C16.1463 2.69521 18.4484 2.46492 21.3137 1.74959C20.8391 3.69741 19.0788 5.14959 16.9963 5.14959Z" fill="white"/>
</g>
<defs>
<clipPath id="clip0_2064_1949">
<rect width="34" height="34" fill="white"/>
</clipPath>
</defs>
</svg>
