<svg width="19" height="16" viewBox="0 0 19 16" fill="none" xmlns="http://www.w3.org/2000/svg">
<g clip-path="url(#clip0_2064_912)">
<path d="M18 8.99995C18.5523 8.99995 19 8.55223 19 7.99995C19 7.44767 18.5523 6.99995 18 6.99995V8.99995ZM0.292893 7.29284C-0.097631 7.68337 -0.097631 8.31653 0.292893 8.70706L6.65685 15.071C7.04738 15.4615 7.68054 15.4615 8.07107 15.071C8.46159 14.6804 8.46159 14.0473 8.07107 13.6568L2.41421 7.99995L8.07107 2.3431C8.46159 1.95257 8.46159 1.31941 8.07107 0.928879C7.68054 0.538355 7.04738 0.538355 6.65685 0.928879L0.292893 7.29284ZM18 6.99995H1V8.99995H18V6.99995Z" fill="white" fill-opacity="0.65"/>
</g>
<defs>
<clipPath id="clip0_2064_912">
<rect width="19" height="16" fill="white"/>
</clipPath>
</defs>
</svg>
