<svg width="34" height="34" viewBox="0 0 34 34" fill="none" xmlns="http://www.w3.org/2000/svg">
<path d="M30.1465 17.5755L30.1291 17.5929C29.9896 17.8022 29.763 17.9242 29.5363 17.9242C29.4491 17.9242 29.3619 17.9068 29.2747 17.8719C29.1701 17.8196 29.0481 17.7847 28.9435 17.7324C28.6994 17.6278 28.4727 17.5232 28.246 17.436C27.3742 17.1047 26.5547 16.9478 25.7701 16.9478C25.5783 16.9478 25.3691 16.9652 25.1773 16.9827C24.2009 17.0873 23.2942 17.4709 22.3004 18.2032C22.1783 18.2904 22.0388 18.395 21.9168 18.4822C21.725 18.6216 21.5332 18.7786 21.324 18.9181C21.045 19.1273 20.7137 19.2319 20.3824 19.2319C20.2255 19.2319 20.0512 19.2145 19.8942 19.1622C19.5281 19.0575 19.2491 18.796 19.1096 18.4822C18.9876 18.1509 19.005 17.7847 19.1968 17.4534C19.3014 17.2791 19.4758 17.035 19.7373 16.8432C21.2542 15.7796 22.6142 15.1519 24.044 14.8904C24.5147 14.8032 24.9855 14.7683 25.4214 14.7683C27.1301 14.7683 28.6471 15.3786 29.9199 16.5991C29.9547 16.634 29.9896 16.6688 30.0245 16.7037L30.0594 16.7386C30.2686 16.9652 30.3209 17.2965 30.1465 17.5755Z" fill="white"/>
<path d="M14.9076 18.3777C14.7856 18.7089 14.4892 18.953 14.1056 19.0577C13.9486 19.0925 13.7917 19.1274 13.6348 19.1274C13.3035 19.1274 12.9897 19.0228 12.6933 18.8484C12.484 18.7089 12.2922 18.5695 12.1004 18.43C11.9784 18.3428 11.8563 18.2556 11.7168 18.151C10.723 17.471 9.81633 17.1048 8.82249 17.0177C8.63069 17.0002 8.42146 16.9828 8.22967 16.9828C7.44505 16.9828 6.62557 17.1397 5.73633 17.4536C5.50967 17.5407 5.26556 17.6279 5.0389 17.7325C4.91685 17.7848 4.81223 17.8197 4.70762 17.872C4.62044 17.9069 4.53326 17.9243 4.44608 17.9243C4.21941 17.9243 3.99274 17.8023 3.87069 17.6105V17.593V17.5756C3.69633 17.2966 3.73121 16.9305 3.97531 16.7038L4.01018 16.6864C4.04505 16.6515 4.07992 16.6166 4.1148 16.5818C5.38762 15.4484 6.90454 14.873 8.59582 14.873C9.03172 14.873 9.50249 14.9079 9.97326 14.9951C11.403 15.2392 12.763 15.8146 14.2625 16.8084C14.5415 16.9828 14.7158 17.2269 14.8204 17.3838C14.9948 17.6977 15.0297 18.0638 14.9076 18.3777Z" fill="white"/>
</svg>
