<svg width="34" height="34" viewBox="0 0 34 34" fill="none" xmlns="http://www.w3.org/2000/svg">
<path d="M6.77028 13.8154C9.09392 19.8294 19.4937 20.3007 25.0497 16.7453C27.1357 15.4103 29.2218 13.0767 30.205 7.41143C30.2483 7.16096 29.9622 6.98833 29.7556 7.13617C27.1705 8.98416 26.3599 8.59829 23.1554 7.07259C22.9222 6.96158 22.6763 6.84454 22.4162 6.72188C13.5863 2.55832 4.91135 9.0041 6.77028 13.8154Z" fill="white"/>
<path d="M5.71283 14.2239C5.52802 13.7456 5.42488 13.2607 5.3932 12.7773C4.1651 13.6927 2.75267 15.3632 2.83657 17.2132C2.90287 18.6754 3.22106 20.9959 3.53913 23.3157C3.67799 24.3283 3.81682 25.3408 3.93469 26.2817C3.97557 26.6084 4.44701 26.6219 4.49784 26.2967C4.51487 26.1878 4.53198 26.0779 4.54921 25.9672L4.54952 25.9653C5.08154 22.5512 5.73196 18.3771 7.31208 16.7496C6.63732 16.0362 6.08913 15.1979 5.71283 14.2239Z" fill="white"/>
<path d="M30.0914 26.5804C29.85 22.9003 29.2065 17.4376 27.498 16.2218C28.2918 15.4193 29.0309 14.4061 29.6687 13.0847C31.5605 17.3697 31.2174 23.2098 30.9711 25.3089L30.7671 26.617C30.7136 26.9609 30.1141 26.9278 30.0914 26.5804Z" fill="white"/>
</svg>
