<svg width="34" height="20" viewBox="0 0 34 20" fill="none" xmlns="http://www.w3.org/2000/svg">
<path d="M33.6812 14.3756L33.5059 14.1179L33.3609 14.3937C32.4142 16.1922 29.267 17.267 26.7713 17.267C23.5932 17.267 7.90284 16.7894 5.86018 16.6731C5.45638 16.6492 5.03462 16.638 4.53277 16.638C4.22148 16.638 3.93242 16.6419 3.65286 16.6456C3.41006 16.6488 3.18095 16.6519 2.96569 16.6519C2.29401 16.6519 1.74171 16.4722 1.33851 16.3409C1.07721 16.2559 0.870786 16.1887 0.699835 16.1887C0.568028 16.1887 0.461221 16.2293 0.382407 16.3094C0.279193 16.4141 0.232862 16.5767 0.23653 16.8212C0.267816 18.9358 1.38746 19.0993 2.96576 19.0993C3.18252 19.0993 3.41328 19.0962 3.65788 19.093C3.93616 19.0893 4.22395 19.0855 4.53277 19.0855C5.02706 19.0855 5.44186 19.0964 5.83848 19.1199C7.88361 19.2364 23.59 19.7144 26.7713 19.7144C28.3859 19.7144 30.1709 19.2856 31.5459 18.5676C33.1283 17.7412 33.9996 16.6292 33.9996 15.4363C33.9996 15.0433 33.8925 14.6863 33.6812 14.3756Z" fill="white"/>
<path d="M2.75382 15.6364C2.96901 15.6364 3.19789 15.6333 3.44062 15.6301C3.71673 15.6264 4.00235 15.6226 4.30878 15.6226C4.80015 15.6226 5.21159 15.6335 5.60423 15.657C7.63327 15.7735 23.2177 16.2514 26.3747 16.2514C27.9773 16.2514 29.7488 15.8226 31.1135 15.1043C32.6837 14.2779 33.5484 13.1659 33.5484 11.9733C33.5484 10.2436 31.575 9.685 29.4856 9.09348C28.3464 8.77104 27.1685 8.43759 26.1731 7.90401C25.7248 7.66315 25.0412 7.31406 24.2081 6.89686C24.2095 6.87276 24.2118 6.84881 24.2118 6.82441C24.2118 6.11224 23.6325 5.53292 22.9203 5.53292C22.6006 5.53292 22.3084 5.65028 22.0826 5.84339C21.7809 5.69504 21.4716 5.54325 21.1569 5.38914C21.1288 4.70174 20.5623 4.15079 19.8681 4.15079C19.5877 4.15079 19.3287 4.24158 19.1168 4.39397C18.8346 4.25677 18.552 4.1195 18.2702 3.98276C18.2762 3.93246 18.2802 3.88156 18.2802 3.82969C18.2802 3.1176 17.7008 2.53828 16.9887 2.53828C16.6313 2.53828 16.3076 2.68431 16.0735 2.91963C13.3207 1.59034 11.0638 0.510663 10.8616 0.413961C10.7384 0.329907 10.601 0.285522 10.4632 0.285522C10.2409 0.285522 10.0272 0.393602 9.89134 0.575032L8.37074 2.61417C8.16701 2.89013 8.087 3.16827 8.13288 3.44109C8.22374 3.98163 8.78135 4.36455 9.22939 4.67217C9.40775 4.7947 9.67301 4.9768 9.7156 5.0652C9.715 5.0658 9.71433 5.06647 9.71373 5.06707C9.46591 5.30935 8.67051 5.66996 7.49465 5.66996C6.81497 5.66996 6.09875 5.54011 5.4234 5.29423C4.59701 4.99335 4.25556 4.16778 3.98125 3.50441C3.75184 2.94956 3.55364 2.47047 3.11332 2.47047C2.77927 2.47047 2.39276 2.77015 1.81898 3.47492C-0.131316 5.95386 -0.0401523 9.74151 0.0264618 12.5071C0.0335723 12.8033 0.0404582 13.0879 0.0444251 13.3581C0.0754119 15.473 1.18689 15.6364 2.75382 15.6364ZM19.1 7.95191C19.1 7.95191 19.3501 7.70432 19.6593 7.7969C19.9284 7.87744 20.5646 8.04884 20.9539 8.14554C21.2868 8.22825 20.9863 8.48991 20.9863 8.48991L15.9326 13.1156C15.9286 13.1185 15.7231 13.306 15.4112 13.306C14.9077 13.306 13.9316 13.3021 13.5339 13.3021C13.2033 13.3021 13.4776 13.0232 13.4776 13.0232C13.4776 13.0232 19.0993 7.95191 19.1 7.95191ZM15.2521 6.86011C15.2534 6.85891 15.6421 6.47555 16.1101 6.62367C16.3474 6.69874 16.9042 6.83699 17.2594 6.93638C17.5631 7.02133 17.241 7.33464 17.2409 7.33494L10.9852 13.0065C10.9809 13.0097 10.8362 13.2712 10.3487 13.2712C9.79846 13.2712 8.74857 13.2963 8.31902 13.2963C8.07622 13.2963 8.29208 13.0352 8.29185 13.0353L15.2521 6.86011Z" fill="white"/>
</svg>
